<svg width="133" height="20" viewBox="0 0 133 20" fill="none" xmlns="http://www.w3.org/2000/svg">
<path d="M41.8105 0.159119C47.2283 0.159346 51.6201 4.55182 51.6201 9.96967C51.6199 15.3873 47.2282 19.779 41.8105 19.7792C36.3927 19.7792 32.0002 15.3875 32 9.96967C32 4.55168 36.3926 0.159119 41.8105 0.159119ZM41.8105 2.37396C37.4412 2.37396 33.8984 5.7751 33.8984 9.96967C33.8987 14.164 37.4414 17.5644 41.8105 17.5644C46.1795 17.5642 49.7214 14.1639 49.7217 9.96967C49.7217 5.77523 46.1797 2.37418 41.8105 2.37396Z" fill="url(#paint0_linear_62143_169)"/>
<path d="M64.6163 11.9688L68.0079 19.9385H66.1876L65.464 18.1631H62.1183L61.3947 19.9385H59.6202L63.0118 11.9688H64.6163ZM75.4757 12.0254C75.9505 12.0254 76.3751 12.0908 76.7482 12.2227C77.121 12.3545 77.4375 12.5412 77.6974 12.7822C77.9573 13.0233 78.1566 13.3122 78.296 13.6475C78.4354 13.9828 78.506 14.3539 78.506 14.7607V14.7832C78.506 15.2429 78.4228 15.6465 78.257 15.9932C78.0912 16.3397 77.8633 16.6297 77.5734 16.8633C77.2833 17.0969 76.9438 17.2719 76.5558 17.3887C76.1677 17.5055 75.7513 17.5644 75.3068 17.5645H73.9835V19.9385H72.2433V12.0254H75.4757ZM86.0421 12.0254C86.5167 12.0254 86.9407 12.0908 87.3136 12.2227C87.6865 12.3545 88.0029 12.5412 88.2628 12.7822C88.5228 13.0234 88.723 13.3121 88.8624 13.6475C89.0018 13.9827 89.0714 14.3539 89.0714 14.7607V14.7832C89.0714 15.2429 88.9882 15.6465 88.8224 15.9932C88.6566 16.3397 88.4288 16.6297 88.1388 16.8633C87.8487 17.0969 87.5093 17.2719 87.1212 17.3887C86.7331 17.5055 86.3168 17.5644 85.8722 17.5645H84.5499V19.9385H82.8087V12.0254H86.0421ZM101.084 19.9385H99.2638L98.5402 18.1631H95.1945L94.4708 19.9385H92.6964L96.087 11.9688H97.6925L101.084 19.9385ZM108.937 12.0254C109.878 12.0255 110.611 12.2552 111.135 12.7148C111.659 13.1745 111.92 13.8153 111.92 14.6367V14.6592C111.92 15.2997 111.764 15.8214 111.451 16.2246C111.139 16.6278 110.73 16.9239 110.225 17.1123L112.158 19.9385H110.123L108.428 17.4062H107.06V19.9385H105.318V12.0254H108.937ZM122.475 13.5742H118.235V15.1787H121.966V16.7275H118.235V18.3896H122.531V19.9385H116.506V12.0254H122.475V13.5742ZM128.835 12.0254V18.3555H132.78V19.9385H127.095V12.0254H128.835ZM62.7404 16.626H64.8429L63.7911 14.0596L62.7404 16.626ZM95.8156 16.626H97.9181L96.8673 14.0596L95.8156 16.626ZM73.9835 13.5967V16.0156H75.3634C75.8002 16.0156 76.1389 15.9005 76.38 15.6709C76.6212 15.441 76.7423 15.1565 76.7423 14.8174V14.7949C76.7423 14.403 76.6159 14.1048 76.3634 13.9014C76.111 13.698 75.7661 13.5967 75.3292 13.5967H73.9835ZM84.5499 13.5967V16.0156H85.9288C86.3658 16.0156 86.7053 15.9007 86.9464 15.6709C87.1874 15.4411 87.3077 15.1564 87.3077 14.8174V14.7949C87.3077 14.403 87.1813 14.1048 86.9288 13.9014C86.6764 13.6981 86.3316 13.5967 85.8947 13.5967H84.5499ZM107.06 13.5967V15.8691H108.823C109.253 15.8691 109.583 15.7669 109.813 15.5635C110.042 15.3601 110.157 15.0888 110.157 14.75V14.7266C110.157 14.35 110.036 14.0672 109.795 13.8789C109.554 13.6907 109.219 13.5967 108.789 13.5967H107.06ZM85.963 0.118164C86.5429 0.118211 87.0758 0.204766 87.5616 0.37793C88.0476 0.551224 88.4946 0.800071 88.9015 1.12402L87.9972 2.43555C87.643 2.19443 87.2962 2.00464 86.9572 1.86523C86.618 1.72582 86.2787 1.65527 85.9396 1.65527C85.6006 1.65532 85.3464 1.72168 85.1769 1.85352C85.0073 1.9854 84.923 2.14977 84.923 2.3457V2.36816C84.923 2.49612 84.9473 2.60706 84.9962 2.70117C85.0452 2.79537 85.1337 2.88069 85.2618 2.95605C85.3899 3.03135 85.5651 3.10312 85.7872 3.1709C86.0095 3.2387 86.2901 3.31781 86.629 3.4082C87.0283 3.51367 87.3847 3.63185 87.6974 3.76367C88.0101 3.89555 88.2746 4.05365 88.4894 4.23828C88.7041 4.42288 88.8655 4.64004 88.9747 4.88867C89.084 5.13726 89.1387 5.43478 89.1388 5.78125V5.80469C89.1387 6.19634 89.067 6.54454 88.924 6.84961C88.7808 7.15468 88.5814 7.41097 88.3253 7.61816C88.0691 7.82541 87.7635 7.98448 87.4093 8.09375C87.0552 8.20297 86.663 8.25684 86.2335 8.25684C85.6307 8.2568 85.0393 8.15349 84.4591 7.94629C83.8788 7.73905 83.3509 7.42076 82.8761 6.99121L83.9054 5.75879C84.2671 6.0527 84.6381 6.28663 85.0187 6.45996C85.3992 6.63328 85.8156 6.71972 86.2677 6.71973C86.6292 6.71973 86.9098 6.65415 87.1095 6.52246C87.3092 6.39058 87.4093 6.20725 87.4093 5.97363V5.95117C87.4093 5.83816 87.3892 5.73801 87.3478 5.65137C87.3063 5.56473 87.2263 5.48354 87.1095 5.4082C86.9928 5.33298 86.831 5.25784 86.6241 5.18262C86.4169 5.10726 86.1471 5.02821 85.8156 4.94531C85.4162 4.84736 85.0546 4.73775 84.7306 4.61719C84.4066 4.49664 84.1315 4.34795 83.9054 4.1709C83.6794 3.99388 83.5043 3.77338 83.38 3.50977C83.2557 3.24606 83.1935 2.91813 83.1935 2.52637V2.50391C83.1935 2.14217 83.261 1.81553 83.3966 1.52539C83.5322 1.23556 83.7223 0.98527 83.9669 0.774414C84.2118 0.563403 84.5047 0.401127 84.8439 0.288086C85.1829 0.17512 85.5562 0.118164 85.963 0.118164ZM63.9728 0.231445C64.7865 0.231515 65.4254 0.415958 65.8888 0.785156C66.3521 1.15439 66.5831 1.65198 66.5831 2.27734V2.2998C66.5831 2.52589 66.5557 2.72608 66.4991 2.89941C66.4426 3.07268 66.3668 3.22879 66.2726 3.36816C66.1784 3.50758 66.0688 3.62985 65.9445 3.73535C65.8203 3.84072 65.6871 3.93154 65.5441 4.00684C66.0036 4.18015 66.3653 4.41628 66.629 4.71387C66.8926 5.0115 67.0245 5.42389 67.0245 5.95117V5.97363C67.0245 6.33537 66.955 6.65253 66.8156 6.92383C66.6761 7.19502 66.4759 7.42075 66.2159 7.60156C65.956 7.78239 65.6429 7.91837 65.2775 8.00879C64.9121 8.09914 64.5071 8.14453 64.0626 8.14453H60.299V0.231445H63.9728ZM79.1837 8.14453H77.3644L76.6407 6.36914H73.2941L72.5714 8.14453H70.796L74.1876 0.174805H75.7931L79.1837 8.14453ZM99.6896 0V1.54883H95.4513V3.1543H99.1808V4.70215H95.4513V6.36426H99.7462V7.91309H93.7218V0H99.6896ZM61.9943 4.87695V6.61816H64.0626C64.4469 6.61816 64.7484 6.54853 64.9669 6.40918C65.1855 6.26976 65.295 6.0527 65.295 5.75879V5.73633C65.295 5.47263 65.1928 5.26384 64.9894 5.10938C64.7859 4.95491 64.4581 4.87695 64.006 4.87695H61.9943ZM73.9161 4.83203H76.0187L74.9679 2.2666L73.9161 4.83203ZM61.9943 3.43066H63.5997C63.9838 3.43061 64.2888 3.36424 64.5148 3.23242C64.7409 3.10054 64.8536 2.88766 64.8536 2.59375V2.57129C64.8536 2.30754 64.7556 2.10621 64.5597 1.9668C64.3638 1.82746 64.0812 1.75781 63.712 1.75781H61.9943V3.43066Z" fill="#423A3A"/>
<defs>
<linearGradient id="paint0_linear_62143_169" x1="22.1899" y1="9.96924" x2="41.8101" y2="29.5895" gradientUnits="userSpaceOnUse">
<stop stop-color="#F8BFBF"/>
<stop offset="1" stop-color="#EE8B8B"/>
</linearGradient>
</defs>
</svg>
